<svg xmlns="http://www.w3.org/2000/svg" width="330" height="330" viewBox="0 0 330 330" version="1.1"><path d="M 153.324 37.064 C 97.345 42.485, 52.042 90.151, 49.314 146.500 C 47.053 193.191, 71.736 235.399, 113.542 256.330 C 123.310 261.221, 127.490 262.638, 128.291 261.331 C 128.571 260.874, 128.283 257.356, 127.650 253.513 L 126.500 246.526 118.227 242.013 C 106.887 235.827, 98.913 229.784, 91.438 221.710 C 79.754 209.090, 71.443 194.077, 67.389 178.268 C 51.827 117.572, 93.787 57.886, 156.097 52.088 C 205.302 47.509, 250.268 79.318, 263.160 127.825 C 266.056 138.722, 266.704 157.719, 264.594 169.846 C 259.150 201.119, 238.870 228.409, 210.272 242.941 C 206.853 244.678, 203.856 246.424, 203.611 246.820 C 203.367 247.216, 202.846 250.793, 202.454 254.770 C 201.927 260.119, 202.054 262, 202.940 262 C 206.138 262, 220.520 254.912, 229.481 248.920 C 262.007 227.170, 281 191.589, 281 152.404 C 281 92.819, 235.258 42.835, 175.405 37.015 C 164.453 35.950, 164.841 35.949, 153.324 37.064 M 151.075 76.024 C 117.186 83.159, 92.607 109.353, 87.961 143.285 C 84.547 168.221, 95.333 195.553, 115.068 211.977 C 118.450 214.792, 121.731 216.924, 122.359 216.717 C 123.044 216.490, 123.616 213.317, 123.790 208.779 L 124.080 201.219 118.483 194.860 C 95.966 169.275, 97.264 131.715, 121.487 107.913 C 152.209 77.725, 204.113 87.341, 222.066 126.546 C 225.324 133.660, 228.007 145.751, 227.983 153.208 C 227.938 166.886, 221.335 183.794, 211.932 194.307 L 206.739 200.113 206.620 208.220 C 206.542 213.501, 206.898 216.461, 207.641 216.711 C 209.350 217.285, 220.458 207.652, 225.550 201.180 C 231.630 193.453, 237.444 182.004, 240.142 172.443 C 243.304 161.239, 243.304 143.761, 240.142 132.557 C 232.629 105.935, 211.480 84.628, 185.500 77.505 C 178.453 75.573, 157.498 74.671, 151.075 76.024 M 157.365 117.089 C 146.875 120.129, 138 131.733, 138 142.409 C 138 150.240, 140.624 156.719, 145.952 162.048 C 163.711 179.806, 193.982 165.791, 191.721 140.858 C 190.187 123.940, 173.517 112.408, 157.365 117.089 M 156.344 181.978 C 148.268 183.699, 139.970 189.319, 138.050 194.368 C 135.271 201.678, 136.316 222.807, 141.074 255.500 C 144.128 276.487, 145.674 281.835, 149.928 286.130 C 157.255 293.526, 172.213 293.546, 179.917 286.170 C 183.135 283.090, 184.023 281.295, 185.445 275 C 187.772 264.696, 191.649 236.396, 193.048 219.500 C 194.932 196.756, 192.880 190.518, 181.714 185.043 C 174.827 181.667, 163.966 180.355, 156.344 181.978" stroke="none" fill="#fbf9fb" fill-rule="evenodd"/><path d="M 63.209 1.130 C 35.096 5.241, 12.617 23.630, 4.527 49.135 C 0.044 63.268, -0.117 67.812, 0.222 170.500 C 0.541 267.315, 0.546 267.515, 2.771 275.410 C 10.377 302.401, 27.715 319.769, 54.500 327.230 C 62.481 329.453, 62.728 329.459, 159.500 329.778 C 261.929 330.116, 266.796 329.946, 280.664 325.542 C 296.027 320.663, 311.389 308.502, 319.276 294.976 C 323.716 287.359, 327.812 275.093, 328.677 266.819 C 329.015 263.585, 329.676 260.700, 330.146 260.410 C 331.396 259.637, 331.251 68, 330 68 C 329.450 68, 329 66.851, 329 65.447 C 329 60.806, 325.803 48.600, 322.898 42.154 C 314.138 22.713, 297.521 8.906, 275.500 2.769 L 267.500 0.540 168.500 0.375 C 112.487 0.282, 66.769 0.610, 63.209 1.130 M 153.324 37.064 C 97.345 42.485, 52.042 90.151, 49.314 146.500 C 47.053 193.191, 71.736 235.399, 113.542 256.330 C 123.310 261.221, 127.490 262.638, 128.291 261.331 C 128.571 260.874, 128.283 257.356, 127.650 253.513 L 126.500 246.526 118.227 242.013 C 106.887 235.827, 98.913 229.784, 91.438 221.710 C 79.754 209.090, 71.443 194.077, 67.389 178.268 C 51.827 117.572, 93.787 57.886, 156.097 52.088 C 205.302 47.509, 250.268 79.318, 263.160 127.825 C 266.056 138.722, 266.704 157.719, 264.594 169.846 C 259.150 201.119, 238.870 228.409, 210.272 242.941 C 206.853 244.678, 203.856 246.424, 203.611 246.820 C 203.367 247.216, 202.846 250.793, 202.454 254.770 C 201.927 260.119, 202.054 262, 202.940 262 C 206.138 262, 220.520 254.912, 229.481 248.920 C 262.007 227.170, 281 191.589, 281 152.404 C 281 92.819, 235.258 42.835, 175.405 37.015 C 164.453 35.950, 164.841 35.949, 153.324 37.064 M 0.480 165 C 0.480 218.075, 0.602 239.788, 0.750 213.250 C 0.898 186.713, 0.898 143.288, 0.750 116.750 C 0.602 90.213, 0.480 111.925, 0.480 165 M 151.075 76.024 C 117.186 83.159, 92.607 109.353, 87.961 143.285 C 84.547 168.221, 95.333 195.553, 115.068 211.977 C 118.450 214.792, 121.731 216.924, 122.359 216.717 C 123.044 216.490, 123.616 213.317, 123.790 208.779 L 124.080 201.219 118.483 194.860 C 95.966 169.275, 97.264 131.715, 121.487 107.913 C 152.209 77.725, 204.113 87.341, 222.066 126.546 C 225.324 133.660, 228.007 145.751, 227.983 153.208 C 227.938 166.886, 221.335 183.794, 211.932 194.307 L 206.739 200.113 206.620 208.220 C 206.542 213.501, 206.898 216.461, 207.641 216.711 C 209.350 217.285, 220.458 207.652, 225.550 201.180 C 231.630 193.453, 237.444 182.004, 240.142 172.443 C 243.304 161.239, 243.304 143.761, 240.142 132.557 C 232.629 105.935, 211.480 84.628, 185.500 77.505 C 178.453 75.573, 157.498 74.671, 151.075 76.024 M 157.365 117.089 C 146.875 120.129, 138 131.733, 138 142.409 C 138 150.240, 140.624 156.719, 145.952 162.048 C 163.711 179.806, 193.982 165.791, 191.721 140.858 C 190.187 123.940, 173.517 112.408, 157.365 117.089 M 156.344 181.978 C 148.268 183.699, 139.970 189.319, 138.050 194.368 C 135.271 201.678, 136.316 222.807, 141.074 255.500 C 144.128 276.487, 145.674 281.835, 149.928 286.130 C 157.255 293.526, 172.213 293.546, 179.917 286.170 C 183.135 283.090, 184.023 281.295, 185.445 275 C 187.772 264.696, 191.649 236.396, 193.048 219.500 C 194.932 196.756, 192.880 190.518, 181.714 185.043 C 174.827 181.667, 163.966 180.355, 156.344 181.978" stroke="none" fill="#b03bda" fill-rule="evenodd"/></svg>