<svg xmlns="http://www.w3.org/2000/svg" width="1433" height="1431" viewBox="0 0 1433 1431" version="1.1"><path d="" stroke="none" fill="#a434fc" fill-rule="evenodd"/><path d="M 314.191 2.986 C 291.280 13.825, 270.539 52.088, 252.395 116.985 C 244.657 144.660, 232 203.664, 232 212.059 C 232 217.239, 230.162 211.892, 228.026 200.500 C 220.166 158.571, 207.586 121.508, 195.782 105.500 C 189.385 96.824, 184.160 93.500, 176.922 93.500 C 172.132 93.500, 170.450 94.007, 166.849 96.539 C 139.159 116, 115.539 217.078, 107.036 352.500 C 102.876 418.749, 102.871 511.287, 107.025 579 C 115.383 715.267, 138.464 816.844, 165.707 837.265 C 174.863 844.127, 182.417 843.040, 191.589 833.539 C 201.020 823.770, 209.960 805.007, 217.506 779.149 C 219.376 772.742, 220.927 768.241, 220.953 769.146 C 221.086 773.793, 228.500 827.224, 231.548 845.500 C 243.615 917.856, 258.764 972.946, 276.959 1010.634 C 285.243 1027.793, 292.164 1038.300, 301.088 1047.265 C 310.106 1056.324, 316.808 1059.486, 327 1059.490 C 333.594 1059.493, 335.237 1059.094, 340.600 1056.187 C 368.803 1040.902, 393.866 984.809, 413.516 893 C 415.340 884.475, 416.871 878.404, 416.917 879.510 C 416.962 880.615, 417.685 890.065, 418.522 900.510 C 434.461 1099.404, 468.163 1230.547, 506.437 1242.612 C 512.840 1244.630, 516.636 1244.052, 523.740 1239.977 C 533.255 1234.519, 543.243 1220.136, 552.351 1198.779 C 561.574 1177.152, 572.855 1138.018, 579.529 1104.500 C 581.062 1096.800, 582.631 1090.137, 583.015 1089.693 C 583.399 1089.249, 584.027 1092.399, 584.410 1096.693 C 585.553 1109.512, 590.775 1146.836, 595.087 1173 C 604.949 1232.848, 619.556 1291.894, 634.171 1330.991 C 664.037 1410.887, 698.968 1444.055, 734.754 1426.500 C 745.077 1421.437, 758.881 1407.753, 768.539 1393.010 C 800.651 1343.988, 827.294 1252.092, 843.922 1133 C 845.573 1121.175, 847.481 1106.438, 848.162 1100.250 C 848.843 1094.063, 849.696 1089.338, 850.057 1089.750 C 850.418 1090.163, 851.948 1096.800, 853.458 1104.500 C 865.565 1166.256, 883.306 1214.515, 900.763 1233.178 C 913.326 1246.608, 925.324 1247.058, 938.274 1234.585 C 971.620 1202.470, 1000.349 1076.028, 1014.514 899.048 C 1015.370 888.349, 1016.180 879.486, 1016.314 879.353 C 1016.447 879.220, 1017.586 884.148, 1018.845 890.305 C 1034.522 966.987, 1056.906 1024.403, 1079.971 1047.097 C 1123.255 1089.685, 1167.223 1024.079, 1196.390 873.384 C 1201.421 847.389, 1211.650 779.011, 1212.047 768.720 C 1212.073 768.049, 1213.624 772.742, 1215.494 779.149 C 1225.783 814.410, 1238.799 836.808, 1251.420 840.974 C 1268.128 846.488, 1286.040 819.260, 1299.425 768 C 1321.745 682.522, 1332.577 545.447, 1327.990 406.500 C 1321.888 221.635, 1291.070 89.964, 1254.680 93.281 C 1245.175 94.147, 1237.575 102.036, 1228.460 120.500 C 1219.590 138.468, 1209.799 171.472, 1203.855 203.445 L 1201.634 215.389 1197.787 194.445 C 1177.784 85.531, 1149.681 17.591, 1118.540 2.859 C 1074.236 -18.101, 1030.871 73.337, 1006.548 239 C 1004.570 252.475, 1002.163 270.602, 1001.200 279.283 L 999.449 295.066 996.130 274.783 C 971.178 122.309, 934.112 56.662, 898.100 101.168 C 869.341 136.711, 844.301 241.856, 830.031 387 C 827.118 416.624, 824 456.369, 824 463.870 C 824 467.425, 823.752 470.085, 823.448 469.781 C 823.145 469.478, 820.658 460.515, 817.922 449.865 C 799.847 379.506, 778.252 330.881, 753.735 305.344 C 744.703 295.936, 738.655 291.716, 729.383 288.350 C 712.592 282.255, 695.989 287.924, 679.097 305.519 C 652.719 332.995, 631.754 382.271, 610.193 467.471 C 609.697 469.433, 608.839 462.295, 607.667 446.471 C 595.688 284.605, 571.690 161.773, 542.267 111.719 C 536.776 102.378, 527.281 92.220, 521.548 89.553 C 513.456 85.789, 503.844 87.808, 495.663 94.991 C 481.955 107.026, 465.376 144.891, 453.624 191 C 446.541 218.793, 434.315 281.895, 433.897 292.815 C 433.841 294.292, 432.283 284.025, 430.436 270 C 412.601 134.612, 385.796 45.590, 352.986 12.780 C 340.135 -0.072, 327.433 -3.278, 314.191 2.986 M 34.495 265.568 C 29.456 268.987, 27.776 271.121, 23.135 280 C 12.536 300.275, 4.423 339.639, 1.044 387.187 C -0.283 405.855, -0.289 455.082, 1.033 474 C 4.300 520.756, 12.570 560.790, 23.135 581 C 27.776 589.879, 29.456 592.013, 34.495 595.432 C 54.840 609.238, 73.972 562.755, 81.180 482 C 82.891 462.832, 82.891 398.168, 81.180 379 C 78.171 345.293, 73.219 317.800, 66.442 297.177 C 57.032 268.543, 46.079 257.707, 34.495 265.568 M 1384.922 265.274 C 1370.032 275.308, 1358.119 314.640, 1352.292 373 C 1349.828 397.686, 1349.835 463.089, 1352.305 488 C 1359.715 562.749, 1377.674 606.494, 1396.875 596.565 C 1412.084 588.700, 1424.593 549.205, 1430.692 489.785 C 1433.241 464.955, 1433.230 395.952, 1430.673 371 C 1426.451 329.796, 1418.860 297.030, 1409.357 279 C 1405.199 271.109, 1403.412 268.898, 1398.505 265.568 C 1393.821 262.389, 1389.346 262.292, 1384.922 265.274" stroke="none" fill="#a43cfc" fill-rule="evenodd"/></svg>