<svg xmlns="http://www.w3.org/2000/svg" width="648" height="308" viewBox="0 0 648 308" version="1.1"><path d="M 0 154.002 L 0 308.003 324.250 307.752 L 648.500 307.500 648.753 153.750 L 649.006 0 324.503 0 L 0 0 0 154.002 M 0.487 154.500 C 0.487 239.200, 0.606 273.702, 0.750 231.171 C 0.894 188.641, 0.894 119.341, 0.750 77.171 C 0.606 35.002, 0.487 69.800, 0.487 154.500 M 271 30.697 C 230.908 31.748, 201.830 33.783, 187 36.577 C 181.217 37.666, 169.751 43.586, 164.538 48.175 C 151.401 59.739, 147.281 74.030, 145.002 115.926 C 142.598 160.139, 144.631 211.273, 149.718 234.500 C 152.896 249.013, 161.689 260.486, 174.858 267.304 C 185.474 272.801, 195.450 274.449, 230.500 276.496 C 260.516 278.250, 373.447 278.554, 408.500 276.976 C 458.635 274.720, 473.333 270.973, 486.256 257.158 C 494.598 248.239, 497.466 240.195, 500.392 217.500 C 504.055 189.086, 504.805 153.534, 502.492 118 C 499.655 74.417, 496.168 61.091, 484.549 49.428 C 474.072 38.912, 466.058 36.396, 434 33.564 C 405.304 31.028, 317.372 29.482, 271 30.697 M 288.658 111.750 C 287.880 127.020, 288.023 181.746, 288.886 198.282 L 289.500 210.065 310 197.649 C 346.421 175.590, 378.357 155.526, 378.678 154.500 C 379 153.476, 291.613 99, 289.649 99 C 289.462 99, 289.016 104.737, 288.658 111.750" stroke="none" fill="#f7f7f7" fill-rule="evenodd"/><path d="M 271 30.697 C 230.908 31.748, 201.830 33.783, 187 36.577 C 181.217 37.666, 169.751 43.586, 164.538 48.175 C 151.401 59.739, 147.281 74.030, 145.002 115.926 C 142.598 160.139, 144.631 211.273, 149.718 234.500 C 152.896 249.013, 161.689 260.486, 174.858 267.304 C 185.474 272.801, 195.450 274.449, 230.500 276.496 C 260.516 278.250, 373.447 278.554, 408.500 276.976 C 458.635 274.720, 473.333 270.973, 486.256 257.158 C 494.598 248.239, 497.466 240.195, 500.392 217.500 C 504.055 189.086, 504.805 153.534, 502.492 118 C 499.655 74.417, 496.168 61.091, 484.549 49.428 C 474.072 38.912, 466.058 36.396, 434 33.564 C 405.304 31.028, 317.372 29.482, 271 30.697 M 288.658 111.750 C 287.880 127.020, 288.023 181.746, 288.886 198.282 L 289.500 210.065 310 197.649 C 346.421 175.590, 378.357 155.526, 378.678 154.500 C 379 153.476, 291.613 99, 289.649 99 C 289.462 99, 289.016 104.737, 288.658 111.750" stroke="none" fill="#fc0404" fill-rule="evenodd"/></svg>